<svg width="437" height="275" fill="none" xmlns="http://www.w3.org/2000/svg"><g clip-path="url(#clip0)"><path d="M12.825 275h411.349c3.177 0 6.223-1.265 8.469-3.516a12.017 12.017 0 003.508-8.488v-82.14a496.373 496.373 0 01-217.647 49.937A496.405 496.405 0 01.849 180.853v82.143c0 3.184 1.262 6.237 3.508 8.488A11.963 11.963 0 0012.825 275z" fill="#0D0D0D"/><path d="M436.151 180.856v-67.332a496.388 496.388 0 01-217.647 49.938A496.405 496.405 0 01.849 113.522v67.331a496.39 496.39 0 00217.655 49.938 496.385 496.385 0 00217.647-49.935z" fill="#FF0"/><path d="M436.151 113.524V39.499a484.888 484.888 0 01-217.647 51.275A484.908 484.908 0 01.849 39.496v74.026a496.403 496.403 0 00217.655 49.937 496.385 496.385 0 00217.647-49.935z" fill="#FF28FF"/><path d="M436.151 39.499V12.004c0-3.183-1.262-6.237-3.508-8.488A11.962 11.962 0 00424.174 0H12.825a11.962 11.962 0 00-8.468 3.516 12.018 12.018 0 00-3.508 8.488v27.492a484.907 484.907 0 00217.654 51.277A484.89 484.89 0 00436.151 39.5z" fill="#00FF46"/><path d="M182.203 16.486v-4.388h-35.931v4.84h25.069l-25.553 14.967v4.388h37.105l.863-4.84h-27.069l25.516-14.966zm38.142-4.388l-.862 4.84h-25.449v4.94h24.414l-.828 4.634h-23.586v4.941h27.897l-.862 4.84h-32.554V12.098h31.83zm15.8 0h-5.586l-4.144 24.195h29.862v-4.84h-23.448l3.316-19.355zm24.616 0v24.195h5.518v-9.78h22.207l.828-4.634h-23.035v-4.941h24.07l.862-4.84h-30.45z" fill="#000"/><path d="M30.445 247.844a2.405 2.405 0 00-1.479-2.218 2.385 2.385 0 00-2.61.52 2.405 2.405 0 00.363 3.694 2.39 2.39 0 003.024-.299 2.4 2.4 0 00.702-1.697zm10.01 0a2.405 2.405 0 00-1.479-2.218 2.385 2.385 0 00-2.61.52 2.405 2.405 0 00.363 3.694 2.39 2.39 0 003.024-.299 2.4 2.4 0 00.702-1.697zm10.012 0a2.405 2.405 0 00-1.479-2.218 2.385 2.385 0 00-2.61.52 2.406 2.406 0 00.363 3.694 2.39 2.39 0 003.024-.299 2.4 2.4 0 00.702-1.697zm10.01 0a2.405 2.405 0 00-1.48-2.218 2.385 2.385 0 00-2.61.52 2.405 2.405 0 00.364 3.694 2.39 2.39 0 003.024-.299 2.4 2.4 0 00.702-1.697zm22.304 2.473h-1.765v3.263h-2.12v-3.263h-5.885v-2.223l5.885-8.278h2.12v8.729h1.765v1.772zm-8.043-1.772h4.158v-6.06h-.036l-4.122 6.06zm13.183-3.028c.369.015.737-.012 1.1-.079.344-.058.675-.174.98-.343.286-.163.526-.397.697-.68.184-.322.275-.689.263-1.061a1.801 1.801 0 00-.599-1.416 2.233 2.233 0 00-1.538-.531 2.02 2.02 0 00-1.736.876 2.94 2.94 0 00-.424.903 3.48 3.48 0 00-.115 1.035h-2.237a5.7 5.7 0 01.371-1.861 4.7 4.7 0 01.913-1.483c.393-.425.871-.76 1.403-.985a4.705 4.705 0 011.864-.353 5.396 5.396 0 011.58.24c.5.149.97.381 1.392.687a3.298 3.298 0 011.363 2.754 3.431 3.431 0 01-.479 1.817 2.681 2.681 0 01-1.473 1.131v.041a2.819 2.819 0 011.835 1.169 4.205 4.205 0 01.263 4.031 3.925 3.925 0 01-1.056 1.318c-.463.37-.989.653-1.552.836a5.84 5.84 0 01-1.864.295 5.763 5.763 0 01-2.088-.346 3.964 3.964 0 01-1.49-.972 4.187 4.187 0 01-.913-1.515 6.035 6.035 0 01-.333-1.966h2.235a3.112 3.112 0 00.618 2.093 2.347 2.347 0 001.971.838 2.786 2.786 0 001.873-.641 2.24 2.24 0 00.757-1.817 2.297 2.297 0 00-.313-1.28 2.046 2.046 0 00-.824-.72 3.272 3.272 0 00-1.148-.305 10.73 10.73 0 00-1.305-.041l.01-1.669zm16.578 8.063h-9.377a5.647 5.647 0 01.821-2.989 7.592 7.592 0 012.199-2.221c.446-.329.908-.646 1.392-.961a10.82 10.82 0 001.334-.991c.387-.333.725-.72 1.001-1.15.266-.428.409-.922.412-1.426a4.026 4.026 0 00-.086-.797 2.176 2.176 0 00-.345-.785 2.035 2.035 0 00-.719-.61 2.426 2.426 0 00-1.176-.24 2.126 2.126 0 00-1.109.266 1.965 1.965 0 00-.718.72 3.57 3.57 0 00-.393 1.09 8.203 8.203 0 00-.146 1.357h-2.237a7.04 7.04 0 01.304-2.113 4.724 4.724 0 01.912-1.68 4.275 4.275 0 011.48-1.112 5.433 5.433 0 014.132 0 4.09 4.09 0 011.363 1.042c.336.4.586.865.736 1.366.138.456.21.93.215 1.407.007.51-.08 1.017-.256 1.496-.166.44-.397.854-.685 1.226a7.11 7.11 0 01-.98 1.035c-.369.312-.747.61-1.14.884-.393.273-.783.538-1.176.785a16.63 16.63 0 00-1.09.749c-.314.23-.606.49-.872.775a2.217 2.217 0 00-.51.857h6.69l.024 2.02zm1.806-11.484c.46 0 .919-.039 1.372-.118.417-.071.82-.203 1.198-.393.35-.18.664-.425.925-.721a2.19 2.19 0 00.498-1.061h1.823v13.764h-2.444v-9.714h-3.372v-1.757z" fill="#fff"/><path d="M370.598 198.547h-29.637v53.682h29.637v-53.682z" fill="#FF5F00"/><path d="M342.865 225.386a34.316 34.316 0 013.399-14.923 34.033 34.033 0 019.538-11.918 33.737 33.737 0 00-17.317-7.104 33.643 33.643 0 00-18.418 3.239 33.961 33.961 0 00-13.907 12.594 34.336 34.336 0 00-5.16 18.112 34.34 34.34 0 005.16 18.113 33.961 33.961 0 0013.907 12.594 33.643 33.643 0 0035.735-3.866 34.04 34.04 0 01-9.538-11.917 34.32 34.32 0 01-3.399-14.924z" fill="#EB001B"/><path d="M410.578 225.387a34.338 34.338 0 01-5.159 18.112 33.961 33.961 0 01-13.907 12.594 33.641 33.641 0 01-18.418 3.239 33.73 33.73 0 01-17.316-7.104 34.114 34.114 0 009.531-11.921 34.369 34.369 0 003.405-14.92 34.37 34.37 0 00-3.405-14.921 34.101 34.101 0 00-9.531-11.92 33.641 33.641 0 0135.734-3.866 33.968 33.968 0 0113.907 12.594 34.339 34.339 0 015.159 18.113zm-3.182 21.161v-1.099h.44v-.224h-1.12v.224h.44v1.099h.24zm2.174 0v-1.325h-.343l-.395.911-.395-.911h-.344v1.325h.243v-1l.37.862h.251l.371-.864v1.002h.242z" fill="#F79E1B"/></g><defs><clipPath id="clip0"><path fill="#fff" transform="translate(.85)" d="M0 0h435.302v275H0z"/></clipPath></defs></svg>