<svg xmlns="http://www.w3.org/2000/svg" width="437" height="275" fill="none"><g clip-path="url(#clip0)"><path d="M12.825 275h411.349c3.177 0 6.223-1.265 8.469-3.516a12.017 12.017 0 003.508-8.488v-82.14a496.373 496.373 0 01-217.647 49.937A496.405 496.405 0 01.849 180.853v82.143c0 3.184 1.262 6.237 3.508 8.488A11.963 11.963 0 0012.825 275z" fill="#0D0D0D"/><path d="M436.151 180.856v-67.332a496.388 496.388 0 01-217.647 49.938A496.405 496.405 0 01.849 113.522v67.331a496.39 496.39 0 00217.655 49.938 496.385 496.385 0 00217.647-49.935z" fill="#FF0"/><path d="M436.151 113.524V39.499a484.888 484.888 0 01-217.647 51.275A484.908 484.908 0 01.849 39.496v74.026a496.403 496.403 0 00217.655 49.937 496.385 496.385 0 00217.647-49.935z" fill="#FF28FF"/><path d="M436.151 39.499V12.004c0-3.183-1.262-6.237-3.508-8.488A11.962 11.962 0 00424.174 0H12.825a11.962 11.962 0 00-8.468 3.516 12.018 12.018 0 00-3.508 8.488v27.492a484.907 484.907 0 00217.654 51.277A484.89 484.89 0 00436.151 39.5z" fill="#00FF46"/><path d="M182.203 16.486v-4.388h-35.931v4.84h25.069l-25.553 14.967v4.388h37.105l.863-4.84h-27.069l25.516-14.966zm38.142-4.388l-.862 4.84h-25.449v4.94h24.414l-.828 4.634h-23.586v4.941h27.897l-.862 4.84h-32.554V12.098h31.83zm15.8 0h-5.586l-4.144 24.195h29.862v-4.84h-23.448l3.316-19.355zm24.616 0v24.195h5.518v-9.78h22.207l.828-4.634h-23.035v-4.941h24.07l.862-4.84h-30.45z" fill="#000"/><path d="M370.598 198.547h-29.637v53.682h29.637v-53.682z" fill="#FF5F00"/><path d="M342.865 225.386a34.316 34.316 0 013.399-14.923 34.033 34.033 0 019.538-11.918 33.737 33.737 0 00-17.317-7.104 33.643 33.643 0 00-18.418 3.239 33.961 33.961 0 00-13.907 12.594 34.336 34.336 0 00-5.16 18.112 34.34 34.34 0 005.16 18.113 33.961 33.961 0 0013.907 12.594 33.643 33.643 0 0035.735-3.866 34.04 34.04 0 01-9.538-11.917 34.32 34.32 0 01-3.399-14.924z" fill="#EB001B"/><path d="M410.578 225.387a34.338 34.338 0 01-5.159 18.112 33.961 33.961 0 01-13.907 12.594 33.641 33.641 0 01-18.418 3.239 33.73 33.73 0 01-17.316-7.104 34.114 34.114 0 009.531-11.921 34.369 34.369 0 003.405-14.92 34.37 34.37 0 00-3.405-14.921 34.101 34.101 0 00-9.531-11.92 33.641 33.641 0 0135.734-3.866 33.968 33.968 0 0113.907 12.594 34.339 34.339 0 015.159 18.113zm-3.182 21.161v-1.099h.44v-.224h-1.12v.224h.44v1.099h.24zm2.174 0v-1.325h-.343l-.395.911-.395-.911h-.344v1.325h.243v-1l.37.862h.251l.371-.864v1.002h.242z" fill="#F79E1B"/></g><defs><clipPath id="clip0"><path fill="#fff" transform="translate(.85)" d="M0 0h435.302v275H0z"/></clipPath></defs></svg>