<svg width="306" height="263" fill="none" xmlns="http://www.w3.org/2000/svg"><path d="M84.78 163.946s-1.401-10.63-19.397-13.371c-5.117 6.173-9.001 16.02-9.001 16.02s14.653 3.86 18.123 13.293" fill="#29FC2E"/><path d="M84.78 163.946s-1.401-10.63-19.397-13.371c-5.117 6.173-9.001 16.02-9.001 16.02s14.653 3.86 18.123 13.293" stroke="#000" stroke-width="2" stroke-miterlimit="10" stroke-linecap="round" stroke-linejoin="round"/><path d="M81.32 164.401l.01.069c-.053-.302-1.312-6.733-12.514-9.645-.676 1-1.907 1.48-3.07 1.159-1.264 1.93-2.4 3.986-3.34 5.834a2.788 2.788 0 011.315 3.804c3.75 1.728 8.329 4.462 11.434 8.425" stroke="#258500" stroke-width="2" stroke-miterlimit="10" stroke-linecap="round" stroke-linejoin="round"/><path d="M73.407 166.855c-1.423-1.144-1.893-2.919-1.05-3.964.842-1.045 2.679-.964 4.102.18 1.422 1.145 1.893 2.919 1.05 3.964-.842 1.045-2.68.965-4.102-.18z" stroke="#258500" stroke-width="2" stroke-miterlimit="10" stroke-linecap="round" stroke-linejoin="round"/><path d="M293.255 230.269H12.865s-8.398-31.832 21.311-32.262c6.548-14.102 28.213-13.754 28.213-13.754s30.642-40.199 72.852-19.525c44.407-24.533 132.808-6.084 139.612 35.628 24.34.918 18.402 29.913 18.402 29.913z" fill="#29FC2E"/><path d="M293.255 230.269H12.865s-8.398-31.832 21.311-32.262c6.548-14.102 28.213-13.754 28.213-13.754s30.642-40.199 72.852-19.525c44.407-24.533 132.808-6.084 139.612 35.628 24.34.918 18.402 29.913 18.402 29.913z" stroke="#000" stroke-width="2" stroke-miterlimit="10" stroke-linecap="round" stroke-linejoin="round"/><path d="M263.436 186.973c-1.221-1.664-3.395-2.574-5.44-2.281m-14.275 22.838c-.778-1.156-2.34-1.456-3.734-1.496-2.037-.058-4.359.388-5.431 2.119-1.61-1.021-3.764-1.118-5.458-.245M98.022 225.315a13.022 13.022 0 00-6.672-.135c-.477.116-.953.261-1.444.291-.76.046-1.506-.185-2.245-.37a18.948 18.948 0 00-8.058-.236m-13.08-9.022c-2.802-2.64-7-1.157-7.703-.241m11.762-27.791c-1.427-.958-4.6-1.19-6.318.692m63.264-7.579a7.975 7.975 0 00-2.489-3.011c-1.372-1.005-3.341-1.52-4.755-.575-1.139.76-1.564 2.192-2.076 3.46-.089.223-.192.455-.386.595-.224.162-.521.173-.796.145-1.325-.135-2.492-.994-3.818-1.143-2.017-.228-3.806 1.196-5.333 2.533a7.598 7.598 0 00-5.048-1.437m12.003-11.623c-2.901-4.276-7.934-2.824-9.267.001-.066.138-.21.234-.354.288-.194.074-.411.011-.612-.043a7.096 7.096 0 00-5.243.65m22.746-2.118h-1.45m15.903 44.697c-1.687-.894-6.273-.894-7.644.22m141.276-11.802c4.188 2.209 6.963 7.759 8.541 12.344a2.794 2.794 0 00-1.435 3.44c-2.157 1.027-5.142 2.554-7.331 3.677-.637-1.485-2.393-2.109-3.837-1.38-1.634-3.742-5.218-10.313-11.323-13.738" stroke="#258500" stroke-width="2" stroke-miterlimit="10" stroke-linecap="round" stroke-linejoin="round"/><path d="M269.64 206.701c1.247 1.333 1.462 3.156.48 4.072-.981.916-2.788.578-4.035-.756-1.247-1.333-1.462-3.157-.481-4.072.982-.916 2.789-.578 4.036.756z" stroke="#258500" stroke-width="2" stroke-miterlimit="10" stroke-linecap="round" stroke-linejoin="round"/><path d="M35.61 219.499l-15.04 20.93L1 236.013l14.506-18.626" fill="#29FC2E"/><path d="M35.61 219.499l-15.04 20.93L1 236.013l14.506-18.626" stroke="#000" stroke-width="2" stroke-miterlimit="10" stroke-linecap="round" stroke-linejoin="round"/><path d="M19.93 217.19s-6.71 7.028-11.152 13.132c1.87.536 2.638 2.758 1.491 4.328 1.7.484 3.638.972 5.168 1.344a4.18 4.18 0 014.342-1.568c2.292-3.078 6.58-8.657 9.952-12.008" stroke="#258500" stroke-width="2" stroke-miterlimit="10" stroke-linecap="round" stroke-linejoin="round"/><path d="M18.027 227.162c.829.681 2.456.073 3.634-1.358 1.18-1.43 1.463-3.141.635-3.822-.827-.681-2.454-.072-3.633 1.358-1.179 1.43-1.463 3.141-.636 3.822z" stroke="#258500" stroke-width="2" stroke-miterlimit="10" stroke-linecap="round" stroke-linejoin="round"/><path d="M31.581 117.182s13.854 2.805 20.206 3.954C41.019 132.393 37.4 145.937 37.06 154.927c-7.208-2.165-21.723-.543-21.723-.543s4.885-31.337 16.244-37.202z" fill="#29FC2E"/><path d="M31.581 117.182s13.854 2.805 20.206 3.954C41.019 132.393 37.4 145.937 37.06 154.927c-7.208-2.165-21.723-.543-21.723-.543s4.885-31.337 16.244-37.202z" stroke="#000" stroke-width="2" stroke-miterlimit="10" stroke-linecap="round" stroke-linejoin="round"/><path d="M15.338 154.384s4.885-31.337 16.244-37.202l-16.244 37.202z" fill="#29FC2E"/><path d="M15.338 154.384s4.885-31.337 16.244-37.202" stroke="#000" stroke-width="2" stroke-miterlimit="10" stroke-linecap="round" stroke-linejoin="round"/><path d="M31.369 150.494c.227-1.41 1.503-2.396 2.93-2.312a56.88 56.88 0 014.931-15.063 57.102 57.102 0 013.551-6.237c-1.945-.391-2.88-2.614-1.788-4.267-2.824-.556-5.522-1.096-7.42-1.476a2.798 2.798 0 01-2.524.759c-1.326 1.317-2.904 3.451-4.595 6.908-2.806 5.736-4.804 12.807-6.056 18.145 1.836-.067 3.223 1.627 2.814 3.415 2.559-.078 5.424-.074 8.157.128z" fill="#29FC2E"/><path d="M31.369 150.494c.227-1.41 1.503-2.396 2.93-2.312a56.88 56.88 0 014.931-15.063 57.102 57.102 0 013.551-6.237c-1.945-.391-2.88-2.614-1.788-4.267-2.824-.556-5.522-1.096-7.42-1.476a2.798 2.798 0 01-2.524.759c-1.326 1.317-2.904 3.451-4.595 6.908-2.806 5.736-4.804 12.807-6.056 18.145 1.836-.067 3.223 1.627 2.814 3.415 2.559-.078 5.424-.074 8.157.128z" stroke="#258500" stroke-width="2" stroke-miterlimit="10" stroke-linecap="round" stroke-linejoin="round"/><path d="M29.557 138.405c1.605.653 3.588-.49 4.43-2.553.841-2.063.221-4.263-1.384-4.916-1.605-.654-3.588.489-4.429 2.551-.841 2.063-.222 4.264 1.383 4.918z" fill="#29FC2E"/><path d="M29.557 138.405c1.605.653 3.588-.49 4.43-2.553.841-2.063.221-4.263-1.384-4.916-1.605-.654-3.588.489-4.429 2.551-.841 2.063-.222 4.264 1.383 4.918z" stroke="#258500" stroke-width="2" stroke-miterlimit="10" stroke-linecap="round" stroke-linejoin="round"/><path d="M102.976 244.786v-.162" stroke="#000" stroke-width="2" stroke-miterlimit="10" stroke-linecap="round" stroke-linejoin="round"/><path d="M78.497 239.976v4.648c0 2.221 5.482 4.024 12.24 4.024 6.757 0 12.239-1.803 12.239-4.024v-4.648c0 2.225-5.482 4.029-12.24 4.029-6.757 0-12.239-1.804-12.239-4.029z" fill="#FD9213"/><path d="M78.497 239.976c0 2.225 5.482 4.029 12.24 4.029s12.239-1.804 12.239-4.029c0-2.222-5.481-4.025-12.24-4.025-6.757 0-12.239 1.803-12.239 4.025z" fill="#FECC12"/><path d="M78.497 239.976c0 2.225 5.482 4.029 12.24 4.029s12.239-1.804 12.239-4.029c0-2.222-5.481-4.025-12.24-4.025-6.757 0-12.239 1.803-12.239 4.025z" stroke="#000" stroke-width="2" stroke-miterlimit="10" stroke-linecap="round" stroke-linejoin="round"/><path d="M78.497 239.976v4.648c0 2.221 5.482 4.024 12.24 4.024 6.757 0 12.239-1.803 12.239-4.024v-4.648c0 2.225-5.482 4.029-12.24 4.029-6.757 0-12.239-1.804-12.239-4.029zm0 4.81v-.162m-13.953-8.673v-.161" stroke="#000" stroke-width="2" stroke-miterlimit="10" stroke-linecap="round" stroke-linejoin="round"/><path d="M40.066 231.141v4.65c0 2.22 5.481 4.023 12.239 4.023 6.758 0 12.24-1.803 12.24-4.023v-4.65c0 2.227-5.482 4.029-12.24 4.029s-12.24-1.802-12.24-4.029z" fill="#FD9213"/><path d="M40.066 231.141c0 2.227 5.481 4.029 12.239 4.029 6.758 0 12.24-1.802 12.24-4.029 0-2.221-5.482-4.024-12.24-4.024s-12.24 1.803-12.24 4.024z" fill="#FECC12"/><path d="M40.066 231.141c0 2.227 5.481 4.029 12.239 4.029 6.758 0 12.24-1.802 12.24-4.029 0-2.221-5.482-4.024-12.24-4.024s-12.24 1.803-12.24 4.024z" stroke="#000" stroke-width="2" stroke-miterlimit="10" stroke-linecap="round" stroke-linejoin="round"/><path d="M40.066 231.141v4.65c0 2.22 5.481 4.023 12.239 4.023 6.758 0 12.24-1.803 12.24-4.023v-4.65c0 2.227-5.482 4.029-12.24 4.029s-12.24-1.802-12.24-4.029zm-.001 4.81v-.161m239.174 22.347v-.162" stroke="#000" stroke-width="2" stroke-miterlimit="10" stroke-linecap="round" stroke-linejoin="round"/><path d="M254.761 253.327v4.649c0 2.221 5.482 4.024 12.239 4.024 6.758 0 12.24-1.803 12.24-4.024v-4.649c0 2.226-5.482 4.029-12.24 4.029-6.757 0-12.239-1.803-12.239-4.029z" fill="#FD9213"/><path d="M254.761 253.327c0 2.226 5.482 4.029 12.239 4.029 6.758 0 12.24-1.803 12.24-4.029 0-2.221-5.482-4.024-12.24-4.024-6.757 0-12.239 1.803-12.239 4.024z" fill="#FECC12"/><path d="M254.761 253.327c0 2.226 5.482 4.029 12.239 4.029 6.758 0 12.24-1.803 12.24-4.029 0-2.221-5.482-4.024-12.24-4.024-6.757 0-12.239 1.803-12.239 4.024z" stroke="#000" stroke-width="2" stroke-miterlimit="10" stroke-linecap="round" stroke-linejoin="round"/><path d="M254.761 253.327v4.649c0 2.221 5.482 4.024 12.239 4.024 6.758 0 12.24-1.803 12.24-4.024v-4.649c0 2.226-5.482 4.029-12.24 4.029-6.757 0-12.239-1.803-12.239-4.029zm0 4.81v-.162M64.544 231.394v-.162" stroke="#000" stroke-width="2" stroke-miterlimit="10" stroke-linecap="round" stroke-linejoin="round"/><path d="M40.066 226.584v4.648c0 2.221 5.481 4.025 12.239 4.025 6.758 0 12.24-1.804 12.24-4.025v-4.648c0 2.225-5.482 4.029-12.24 4.029s-12.24-1.804-12.24-4.029z" fill="#FD9213"/><path d="M40.066 226.584c0 2.225 5.481 4.029 12.239 4.029 6.758 0 12.24-1.804 12.24-4.029 0-2.222-5.482-4.024-12.24-4.024s-12.24 1.802-12.24 4.024z" fill="#FECC12"/><path d="M40.066 226.584c0 2.225 5.481 4.029 12.239 4.029 6.758 0 12.24-1.804 12.24-4.029 0-2.222-5.482-4.024-12.24-4.024s-12.24 1.802-12.24 4.024z" stroke="#000" stroke-width="2" stroke-miterlimit="10" stroke-linecap="round" stroke-linejoin="round"/><path d="M40.066 226.584v4.648c0 2.221 5.481 4.025 12.239 4.025 6.758 0 12.24-1.804 12.24-4.025v-4.648c0 2.225-5.482 4.029-12.24 4.029s-12.24-1.804-12.24-4.029zm-.001 4.81v-.162M100.99 92.005l-.112-.118" stroke="#000" stroke-width="2" stroke-miterlimit="10" stroke-linecap="round" stroke-linejoin="round"/><path d="M79.868 105.262l3.19 3.384c1.525 1.618 6.754-.823 11.674-5.448 4.92-4.627 7.674-9.693 6.149-11.31l-3.19-3.385c1.528 1.621-1.226 6.687-6.146 11.313-4.92 4.627-10.15 7.067-11.677 5.446z" fill="#FD9213"/><path d="M79.866 105.262c1.528 1.621 6.757-.819 11.677-5.446 4.92-4.626 7.674-9.692 6.146-11.313-1.524-1.617-6.754.823-11.673 5.45-4.921 4.626-7.675 9.691-6.15 11.309z" fill="#FECC12"/><path d="M79.866 105.262c1.528 1.621 6.757-.819 11.677-5.446 4.92-4.626 7.674-9.692 6.146-11.313-1.524-1.617-6.754.823-11.673 5.45-4.921 4.626-7.675 9.691-6.15 11.309z" stroke="#000" stroke-width="2" stroke-miterlimit="10" stroke-linecap="round" stroke-linejoin="round"/><path d="M79.868 105.262l3.19 3.384c1.525 1.618 6.754-.823 11.674-5.448 4.92-4.627 7.674-9.693 6.149-11.31l-3.19-3.385c1.528 1.621-1.226 6.687-6.146 11.313-4.92 4.627-10.15 7.067-11.677 5.446zm3.3 3.502l-.112-.118M61.704 97.235l.07-.145m242.737 70.404l-.111-.118" stroke="#000" stroke-width="2" stroke-miterlimit="10" stroke-linecap="round" stroke-linejoin="round"/><path d="M283.386 180.751l3.191 3.384c1.524 1.618 6.753-.822 11.673-5.449 4.921-4.626 7.674-9.692 6.15-11.31l-3.191-3.384c1.529 1.621-1.226 6.687-6.146 11.313s-10.149 7.067-11.677 5.446z" fill="#FD9213"/><path d="M283.386 180.751c1.528 1.62 6.757-.82 11.677-5.446 4.92-4.626 7.675-9.692 6.146-11.313-1.524-1.617-6.753.823-11.673 5.449-4.921 4.626-7.675 9.693-6.15 11.31z" fill="#FECC12"/><path d="M283.386 180.751c1.528 1.62 6.757-.82 11.677-5.446 4.92-4.626 7.675-9.692 6.146-11.313-1.524-1.617-6.753.823-11.673 5.449-4.921 4.626-7.675 9.693-6.15 11.31z" stroke="#000" stroke-width="2" stroke-miterlimit="10" stroke-linecap="round" stroke-linejoin="round"/><path d="M283.386 180.751l3.191 3.384c1.524 1.618 6.753-.822 11.673-5.449 4.921-4.626 7.674-9.692 6.15-11.31l-3.191-3.384c1.529 1.621-1.226 6.687-6.146 11.313s-10.149 7.067-11.677 5.446zm3.302 3.501l-.111-.118M177.05 79.892l.107-.121" stroke="#000" stroke-width="2" stroke-miterlimit="10" stroke-linecap="round" stroke-linejoin="round"/><path d="M161.889 60.103l-3.081 3.485c-1.472 1.664 1.441 6.64 6.507 11.108 5.065 4.468 10.369 6.74 11.841 5.075l3.081-3.484c-1.475 1.668-6.779-.604-11.845-5.072-5.064-4.468-7.978-9.443-6.503-11.112z" fill="#FD9213"/><path d="M161.89 60.103c-1.476 1.669 1.438 6.645 6.503 11.112 5.066 4.468 10.369 6.74 11.845 5.072 1.472-1.665-1.441-6.64-6.507-11.108-5.065-4.468-10.369-6.74-11.841-5.076z" fill="#FECC12"/><path d="M161.89 60.103c-1.476 1.669 1.438 6.645 6.503 11.112 5.066 4.468 10.369 6.74 11.845 5.072 1.472-1.665-1.441-6.64-6.507-11.108-5.065-4.468-10.369-6.74-11.841-5.076z" stroke="#000" stroke-width="2" stroke-miterlimit="10" stroke-linecap="round" stroke-linejoin="round"/><path d="M161.889 60.103l-3.081 3.485c-1.472 1.664 1.441 6.64 6.507 11.108 5.065 4.468 10.369 6.74 11.841 5.075l3.081-3.484c-1.475 1.668-6.779-.604-11.845-5.072-5.064-4.468-7.978-9.443-6.503-11.112zm-3.19 3.606l.108-.122" stroke="#000" stroke-width="2" stroke-miterlimit="10" stroke-linecap="round" stroke-linejoin="round"/><path d="M153.258 219.173s10.303 3.018 10.245 21.198c-6.893 4.1-17.233 6.419-17.233 6.419s-1.565-15.053-10.364-19.93" fill="#29FC2E"/><path d="M153.258 219.173s10.303 3.018 10.245 21.198c-6.893 4.1-17.233 6.419-17.233 6.419s-1.565-15.053-10.364-19.93" stroke="#000" stroke-width="2" stroke-miterlimit="10" stroke-linecap="round" stroke-linejoin="round"/><path d="M152.275 222.518l-.067-.02c.29.097 6.46 2.329 7.618 13.831-1.094.513-1.758 1.654-1.619 2.852-2.105.95-4.312 1.755-6.286 2.399a2.792 2.792 0 00-3.561-1.883c-1.134-3.967-3.133-8.906-6.578-12.58" stroke="#258500" stroke-width="2" stroke-miterlimit="10" stroke-linecap="round" stroke-linejoin="round"/><path d="M148.63 229.949c.913 1.581 2.597 2.317 3.76 1.647 1.164-.672 1.367-2.496.453-4.076-.914-1.58-2.598-2.318-3.761-1.646-1.164.67-1.366 2.495-.452 4.075z" stroke="#258500" stroke-width="2" stroke-miterlimit="10" stroke-linecap="round" stroke-linejoin="round"/><path d="M143.502 227.006s-9.133 6.394-14.452 18.487c-.853 1.939-13.371-7.693-18.287-8.098 0 0 3.18-15.462 12.525-19.995" fill="#29FC2E"/><path d="M143.502 227.006s-9.133 6.394-14.452 18.487c-.853 1.939-13.371-7.693-18.287-8.098 0 0 3.18-15.462 12.525-19.995" stroke="#000" stroke-width="2" stroke-miterlimit="10" stroke-linecap="round" stroke-linejoin="round"/><path d="M124.814 220.536c-4.26 2.066-7.224 7.517-8.957 12.046a2.794 2.794 0 011.318 3.487c2.12 1.1 5.05 2.727 7.201 3.924.687-1.463 2.464-2.026 3.882-1.249 1.76-3.685 5.566-10.13 11.784-13.344" stroke="#258500" stroke-width="2" stroke-miterlimit="10" stroke-linecap="round" stroke-linejoin="round"/><path d="M125.933 224.866c-1.292 1.291-1.569 3.105-.619 4.054.95.948 2.767.672 4.059-.619 1.292-1.29 1.569-3.104.619-4.054-.95-.948-2.766-.672-4.059.619z" stroke="#258500" stroke-width="2" stroke-miterlimit="10" stroke-linecap="round" stroke-linejoin="round"/><path d="M249.197 227.058l3.003 14.978s-15.879-4.224-22.181-.768c2.543-9.601 1.247-15.17 1.247-15.17" fill="#29FC2E"/><path d="M249.197 227.058l3.003 14.978s-15.879-4.224-22.181-.768c2.543-9.601 1.247-15.17 1.247-15.17" stroke="#000" stroke-width="2" stroke-miterlimit="10" stroke-linecap="round" stroke-linejoin="round"/><path d="M245.06 226.674l-15.04 20.93-19.569-4.416 14.505-18.626" fill="#29FC2E"/><path d="M245.06 226.674l-15.04 20.93-19.569-4.416 14.505-18.626" stroke="#000" stroke-width="2" stroke-miterlimit="10" stroke-linecap="round" stroke-linejoin="round"/><path d="M239.238 228.735l-9.388 12.937a2.792 2.792 0 00-2.822 1.094l-8.009-1.355a1.393 1.393 0 00-.794-2.255l10.733-12.953" stroke="#258500" stroke-width="2" stroke-miterlimit="10" stroke-linecap="round" stroke-linejoin="round"/><path d="M25.245 199.339S8.017 201.633 2.11 209.977c1.791 1.865 5.443 14.219 5.443 14.219s13.18-8.676 24.605-8.419" fill="#29FC2E"/><path d="M25.245 199.339S8.017 201.633 2.11 209.977c1.791 1.865 5.443 14.219 5.443 14.219s13.18-8.676 24.605-8.419" stroke="#000" stroke-width="2" stroke-miterlimit="10" stroke-linecap="round" stroke-linejoin="round"/><path d="M22.136 204.291s-8.532 1.367-13.179 4.91a2.08 2.08 0 01-.62 2.527c.585 1.266 1.263 2.87 1.792 4.151a2.09 2.09 0 012.937 1.034c2.786-1.517 7.961-3.981 12.534-4.185" stroke="#258500" stroke-width="2" stroke-miterlimit="10" stroke-linecap="round" stroke-linejoin="round"/><path d="M16.959 209.737c.188 1.055 1.82 1.647 3.647 1.323 1.826-.325 3.154-1.442 2.967-2.497-.187-1.054-1.82-1.646-3.646-1.321-1.827.324-3.156 1.441-2.968 2.495z" stroke="#258500" stroke-width="2" stroke-miterlimit="10" stroke-linecap="round" stroke-linejoin="round"/><path d="M96.572 215.112a7.65 7.65 0 004.314-1.329 7.663 7.663 0 002.027-10.653c-6.223-9.13-15.952-25.899-11.215-35.633 2.999-6.163 11.556-7.391 15.096-7.633 10.91-.749 21.395 3.492 24.355 7.917 2.355 3.522 7.123 4.469 10.649 2.116a7.663 7.663 0 002.119-10.636c-7.268-10.863-24.701-15.617-38.171-14.697-13.12.897-23.275 6.811-27.859 16.229-6.193 12.725-2.044 29.872 12.331 50.965a7.674 7.674 0 006.354 3.354z" fill="#FEFC38"/><path d="M96.572 215.112a7.65 7.65 0 004.314-1.329 7.663 7.663 0 002.027-10.653c-6.223-9.13-15.952-25.899-11.215-35.633 2.999-6.163 11.556-7.391 15.096-7.633 10.91-.749 21.395 3.492 24.355 7.917 2.355 3.522 7.123 4.469 10.649 2.116a7.663 7.663 0 002.119-10.636c-7.268-10.863-24.701-15.617-38.171-14.697-13.12.897-23.275 6.811-27.859 16.229-6.193 12.725-2.044 29.872 12.331 50.965a7.674 7.674 0 006.354 3.354z" stroke="#000" stroke-width="2" stroke-miterlimit="10" stroke-linecap="round" stroke-linejoin="round"/><path d="M88.5 204.042s-12.938 6.337-13.872 11.977c7.87 1.224 28.455.469 32.218-.155.165-4.243-3.401-11.822-3.401-11.822H88.501z" fill="#FEFC38"/><path d="M89.119 204.042s-13.559 6.337-14.493 11.977c7.872 1.224 28.455.469 32.218-.155.036-4.251-3.401-11.822-3.401-11.822" stroke="#000" stroke-width="2" stroke-miterlimit="10" stroke-linecap="round" stroke-linejoin="round"/><path d="M49.34 201.601c-.193-4.392 3.216-8.109 7.613-8.301l95.435-4.175.698 15.906-95.435 4.175c-4.398.193-8.12-3.212-8.312-7.605z" fill="#FEFC38"/><path d="M49.34 201.601c-.193-4.392 3.216-8.109 7.613-8.301l95.435-4.175.698 15.906-95.435 4.175c-4.398.193-8.12-3.212-8.312-7.605z" stroke="#000" stroke-width="2" stroke-miterlimit="10" stroke-linecap="round" stroke-linejoin="round"/><path d="M59.94 192.855s-6.907-12.632-12.589-13.318c-.88 7.907.635 26.294 1.424 30.022 4.252-.022 11.875-.519 11.875-.519l-.71-16.185z" fill="#FEFC38"/><path d="M59.966 193.472s-6.933-13.25-12.615-13.935c-.88 7.908.634 26.294 1.424 30.022 4.232-.149 11.875-.492 11.875-.492" stroke="#000" stroke-width="2" stroke-miterlimit="10" stroke-linecap="round" stroke-linejoin="round"/><path d="M110.579 206.891l-.698-15.907 42.507-1.859.698 15.906-42.507 1.86z" fill="#FB23D9"/><path d="M110.579 206.891l-.698-15.907 42.507-1.859.698 15.906-42.507 1.86z" stroke="#000" stroke-width="2" stroke-miterlimit="10" stroke-linecap="round" stroke-linejoin="round"/><path d="M105.745 144.564c13.47-.92 30.903 3.834 38.17 14.697a7.662 7.662 0 01-2.118 10.636c-3.526 2.353-8.294 1.406-10.649-2.116-2.787-4.165-12.241-8.166-22.44-7.997l-4.247-15.1c.427-.04.849-.09 1.284-.12z" fill="#FB23D9"/><path d="M105.745 144.564c13.47-.92 30.903 3.834 38.17 14.697a7.662 7.662 0 01-2.118 10.636c-3.526 2.353-8.294 1.406-10.649-2.116-2.787-4.165-12.241-8.166-22.44-7.997l-4.247-15.1c.427-.04.849-.09 1.284-.12z" stroke="#000" stroke-width="2" stroke-miterlimit="10" stroke-linecap="round" stroke-linejoin="round"/><path d="M140.174 144.653c4.047 0 7.329-3.277 7.329-7.319V47.431c0-4.043-3.282-7.32-7.329-7.32-4.048 0-7.329 3.277-7.329 7.32v89.903c0 4.042 3.281 7.319 7.329 7.319z" fill="#FEFC38"/><path d="M140.174 144.653c4.047 0 7.329-3.277 7.329-7.319V47.431c0-4.043-3.282-7.32-7.329-7.32-4.048 0-7.329 3.277-7.329 7.32v89.903c0 4.042 3.281 7.319 7.329 7.319z" stroke="#000" stroke-width="2" stroke-miterlimit="10" stroke-linecap="round" stroke-linejoin="round"/><path d="M130.991 47.04c-.365 4.678 3.136 8.765 7.82 9.13 4.685.363 8.777-3.133 9.142-7.811.364-4.678-3.137-8.766-7.82-9.13-4.684-.364-8.778 3.133-9.142 7.81z" fill="#FEFC38"/><path d="M146.835 44.574c4.605-1.435 9.006-2.273 10.296.473 1.385 2.949-5.422 5.962-10.464 7.68" fill="#FEFC38"/><path d="M146.835 44.574c4.605-1.435 9.006-2.273 10.296.473 1.385 2.949-5.422 5.962-10.464 7.68" stroke="#000" stroke-width="2" stroke-miterlimit="10" stroke-linecap="round" stroke-linejoin="round"/><path d="M140.492 43.176s-1.577-13.216 3.096-13.209c4.882.008 3.298 14.392 3.298 14.392" fill="#FEFC38"/><path d="M140.492 43.176s-1.577-13.216 3.096-13.209c4.882.008 3.298 14.392 3.298 14.392" stroke="#000" stroke-width="2" stroke-miterlimit="10" stroke-linecap="round" stroke-linejoin="round"/><path d="M133.2 53.72s-11.55-12.061-8.021-15.12c2.048-1.777 5.46 1.345 8.022 4.465" fill="#FEFC38"/><path d="M133.2 53.72s-11.55-12.061-8.021-15.12c2.048-1.777 5.46 1.345 8.022 4.465" stroke="#000" stroke-width="2" stroke-miterlimit="10" stroke-linecap="round" stroke-linejoin="round"/><path d="M133.608 43.87s-5.778-11.993-1.388-13.59c4.587-1.669 8.24 12.77 8.24 12.77" fill="#FEFC38"/><path d="M133.608 43.87s-5.778-11.993-1.388-13.59c4.587-1.669 8.24 12.77 8.24 12.77" stroke="#000" stroke-width="2" stroke-miterlimit="10" stroke-linecap="round" stroke-linejoin="round"/><path d="M256.643 138.392c-2.439-.447-5.558-.839-8.305-.695 0 0 12.161 21.185 36.651 15.26-8.373-7.472-17.93-12.623-28.346-14.565z" fill="#29FC2E"/><path d="M256.643 138.392c-2.439-.447-5.558-.839-8.305-.695 0 0 12.161 21.185 36.651 15.26-8.373-7.472-17.93-12.623-28.346-14.565z" stroke="#000" stroke-width="2" stroke-miterlimit="10" stroke-linecap="round" stroke-linejoin="round"/><path d="M248.38 137.879s22.667 13.859 39.889-13.339c-25.392-3.481-39.889 13.339-39.889 13.339z" fill="#29FC2E"/><path d="M248.38 137.879s22.667 13.859 39.889-13.339c-25.392-3.481-39.889 13.339-39.889 13.339z" stroke="#000" stroke-width="2" stroke-miterlimit="10" stroke-linecap="round" stroke-linejoin="round"/><path d="M229.52 204.736c-26.034 19.545-62.468 15.952-84.19-7.421-27.143-29.064-20.588-75.063 11.767-95.953 70.104-41.809 135.352 52.499 72.423 103.374z" fill="#FEFC38"/><path d="M209.151 214.911c-32.889-21.112-59.041-51.804-74.487-88.131a62.43 62.43 0 00-2.064 4.733 63.56 63.56 0 00-3.972 16.887c-1.412 15.082 2.573 30.721 12.405 43.789 16.226 21.567 43.624 29.805 68.118 22.722z" fill="#FB23D9"/><path d="M229.521 204.737c-27.905 20.939-67.522 15.322-88.489-12.547-20.966-27.868-15.343-67.434 12.562-88.374 27.904-20.94 67.522-15.323 88.49 12.546 20.966 27.869 15.342 67.435-12.563 88.375z" stroke="#000" stroke-width="2" stroke-miterlimit="10" stroke-linecap="round" stroke-linejoin="round"/><path d="M237.798 230.635c12.36 0 18.404-6.32 21.301-11.634 5.25-9.631 3.708-20.627-4.339-30.96-5.39-6.92-12.036-11.423-12.316-11.612-3.519-2.363-8.29-1.43-10.655 2.085a7.66 7.66 0 002.068 10.63c.085.058 5.122 3.518 8.965 8.548 1.661 2.175 6.074 7.952 2.79 13.977-2.908 5.335-10.421 4.339-26.161.087-11.624-3.141-23.644-6.389-31.575.38a7.662 7.662 0 00-.849 10.811 7.685 7.685 0 0010.825.847c2.077-1.424 12.554 1.404 17.589 2.764 7.363 1.99 14.977 4.047 22.208 4.077h.149z" fill="#FEFC38"/><path d="M236.439 191.137c1.812 1.512 4.277 3.798 6.383 6.555 1.661 2.175 6.074 7.952 2.791 13.977-2.909 5.335-10.422 4.339-26.162.087-11.624-3.141-23.644-6.389-31.575.38a7.66 7.66 0 00-.848 10.811 7.683 7.683 0 0010.824.847c2.077-1.424 12.555 1.404 17.589 2.764 7.364 1.99 14.978 4.047 22.208 4.077h.149c12.36 0 18.403-6.32 21.301-11.634 5.25-9.631 3.709-20.627-4.339-30.96-2.013-2.585-4.202-4.832-6.168-6.644" stroke="#000" stroke-width="2" stroke-miterlimit="10" stroke-linecap="round" stroke-linejoin="round"/><path d="M198.508 222.824s-11.792 15.145-14.258 12.364c-1.693-1.91 1.013-5.846 2.873-8.123-1.881 1.989-5.017 4.768-6.486 2.997-1.3-1.566.815-4.175 2.73-6.022-1.989 1.556-4.58 3.175-5.432 1.867-1.448-2.224 8.171-14.166 13.727-16.292" fill="#FEFC38"/><path d="M198.508 222.824s-11.792 15.145-14.258 12.364c-1.693-1.91 1.013-5.846 2.873-8.123-1.881 1.989-5.017 4.768-6.486 2.997-1.3-1.566.815-4.175 2.73-6.022-1.989 1.556-4.58 3.175-5.432 1.867-1.448-2.224 8.171-14.166 13.727-16.292" stroke="#000" stroke-width="2" stroke-miterlimit="10" stroke-linecap="round" stroke-linejoin="round"/><path d="M231.01 180.409c-7.236 3.432-17.438-.665-22.788-9.152-5.349-8.486-3.822-18.148 3.414-21.58 7.236-3.433 17.438.664 22.788 9.15 5.35 8.487 3.821 18.149-3.414 21.582z" fill="#fff"/><path d="M231.01 180.409c-7.236 3.432-17.438-.665-22.788-9.152-5.349-8.486-3.822-18.148 3.414-21.58 7.236-3.433 17.438.664 22.788 9.15 5.35 8.487 3.821 18.149-3.414 21.582z" stroke="#000" stroke-width="2" stroke-miterlimit="10"/><path d="M227.924 175.513c-4.93 2.339-11.882-.452-15.528-6.235-3.645-5.783-2.603-12.367 2.327-14.706 4.931-2.339 11.882.453 15.528 6.235 3.645 5.783 2.604 12.368-2.327 14.706z" fill="#000"/><path d="M227.924 175.513c-4.93 2.339-11.882-.452-15.528-6.235-3.645-5.783-2.603-12.367 2.327-14.706 4.931-2.339 11.882.453 15.528 6.235 3.645 5.783 2.604 12.368-2.327 14.706z" fill="#000"/><path d="M235.566 173.351l-8.599-5.067 3.758 10.571 4.841-5.504zm-44.503-34.492c-7.236 3.433-17.438-.665-22.788-9.151-5.349-8.486-3.821-18.149 3.415-21.581 7.235-3.433 17.438.665 22.787 9.151 5.35 8.486 3.822 18.149-3.414 21.581z" fill="#fff"/><path d="M191.063 138.859c-7.236 3.433-17.438-.665-22.788-9.151-5.349-8.486-3.821-18.149 3.415-21.581 7.235-3.433 17.438.665 22.787 9.151 5.35 8.486 3.822 18.149-3.414 21.581z" stroke="#000" stroke-width="2" stroke-miterlimit="10"/><path d="M187.976 133.963c-4.93 2.339-11.882-.452-15.528-6.235-3.645-5.783-2.604-12.367 2.327-14.706 4.93-2.339 11.882.453 15.527 6.236 3.647 5.782 2.605 12.367-2.326 14.705z" fill="#000"/><path d="M187.976 133.963c-4.93 2.339-11.882-.452-15.528-6.235-3.645-5.783-2.604-12.367 2.327-14.706 4.93-2.339 11.882.453 15.527 6.236 3.647 5.782 2.605 12.367-2.326 14.705z" fill="#000"/><path d="M195.618 131.801l-8.599-5.067 3.759 10.572 4.84-5.505z" fill="#fff"/><path d="M153.333 121.03l29.972 31.174 8.559-8.207-29.972-31.174-8.559 8.207zm34.795 18.818l-22.713-23.625 22.713 23.625z" fill="#FEFC38"/><path d="M188.128 139.848l-22.713-23.625" stroke="#000" stroke-width="2" stroke-miterlimit="10" stroke-linecap="round" stroke-linejoin="round"/><path d="M172.967 102.202l29.971 31.174 8.559-8.207-29.971-31.174-8.559 8.207zm24.928 25.929l-20.559-21.384 20.559 21.384z" fill="#FEFC38"/><path d="M197.895 128.131l-20.559-21.384" stroke="#000" stroke-width="2" stroke-miterlimit="10" stroke-linecap="round" stroke-linejoin="round"/><path d="M193.281 162.58l29.971 31.175 8.559-8.208-29.972-31.174-8.558 8.207zm34.794 18.818l-22.713-23.625 22.713 23.625z" fill="#FEFC38"/><path d="M228.075 181.398l-22.713-23.625" stroke="#000" stroke-width="2" stroke-miterlimit="10" stroke-linecap="round" stroke-linejoin="round"/><path d="M212.914 143.752l29.971 31.174 8.559-8.207-29.971-31.174-8.559 8.207z" fill="#FEFC38"/><path d="M237.844 169.681l-20.56-21.384 20.56 21.384z" fill="#FEFC38"/><path d="M237.844 169.681l-20.56-21.384" stroke="#000" stroke-width="2" stroke-miterlimit="10" stroke-linecap="round" stroke-linejoin="round"/><path d="M252.624 137.083c11.487-15.737 5.888-79.756-10.866-73.7-5.944 2.15-4.927 14.449-4.927 14.449s-6.56-21.51-13.11-16.023c-4.613 3.865-1.007 16.71-1.007 16.71s-6.854-10.362-9.391-5.634c-2.871 5.353 9.885 26.392 9.885 26.392s1.119 8.515 9.522 20.428c8.581 12.165 19.894 17.378 19.894 17.378z" fill="#FEFC38"/><path d="M252.706 138.297c10.247-19.561 6.817-73.575-9.338-75.218-8.772-.892-7.283 15.135-5.086 26.7" stroke="#000" stroke-width="2" stroke-miterlimit="10" stroke-linecap="round" stroke-linejoin="round"/><path d="M236.718 78.322s-5.224-18.378-11.704-17.23c-5.549.982-4.721 11.163.36 27.411" stroke="#000" stroke-width="2" stroke-miterlimit="10" stroke-linecap="round" stroke-linejoin="round"/><path d="M222.689 79.4s-5.978-10.13-9.461-6.678c-4.15 4.116 9.981 26.555 9.981 26.555" stroke="#000" stroke-width="2" stroke-miterlimit="10" stroke-linecap="round" stroke-linejoin="round"/><path d="M253.41 106.959c.325-10.014-.601-19.368-5.014-30.155m-1.972-4.14l-.807-1.444m-13.311 9.59s-1.428-6.6-5.895-12.86" stroke="#fff" stroke-width="2" stroke-miterlimit="10" stroke-linecap="round" stroke-linejoin="round"/><path d="M252.201 136.46a99.403 99.403 0 01-29.409-37.067 63.28 63.28 0 00-17.509-6.725 113.26 113.26 0 0049.469 62.351 62.91 62.91 0 00-2.551-18.559z" fill="#29FC2E"/><path d="M252.201 136.46a99.403 99.403 0 01-29.409-37.067 63.28 63.28 0 00-17.509-6.725 113.26 113.26 0 0049.469 62.351 62.91 62.91 0 00-2.551-18.559z" stroke="#000" stroke-width="2" stroke-miterlimit="10" stroke-linecap="round" stroke-linejoin="round"/><path d="M243.072 154.632c.611 2.365-2.75 5.129-5.23 3.703-3.027-1.743-9.83-9.149-9.787-11.68.039-2.257 3.865-5.065 6.524-3.583 2.718 1.516 7.594 8.09 8.493 11.56zm-49.792-51.791c-2.341-.706-5.244 2.536-3.917 5.069 1.621 3.091 8.754 10.18 11.288 10.239 2.26.054 5.224-3.651 3.85-6.363-1.407-2.775-7.785-7.907-11.221-8.945z" fill="#000"/><path d="M181.178 162.175c4.533 4.714 10.777 7.785 17.816 8.26a5.22 5.22 0 005.562-4.852 5.218 5.218 0 00-4.858-5.555c-8.672-.585-15.387-7.569-15.62-16.247a5.221 5.221 0 00-5.36-5.074 5.219 5.219 0 00-5.08 5.354c.189 7.044 3.008 13.399 7.54 18.114z" fill="#FF9F00"/><path d="M181.178 162.175c4.533 4.714 10.777 7.785 17.816 8.26a5.22 5.22 0 005.562-4.852 5.218 5.218 0 00-4.858-5.555c-8.672-.585-15.387-7.569-15.62-16.247a5.221 5.221 0 00-5.36-5.074 5.219 5.219 0 00-5.08 5.354c.189 7.044 3.008 13.399 7.54 18.114z" stroke="#000" stroke-width="2" stroke-miterlimit="10"/><path d="M199.345 165.232c-11.311-.764-20.184-9.993-20.488-21.311" stroke="#000" stroke-width="2" stroke-miterlimit="10" stroke-linecap="round" stroke-linejoin="round"/><path d="M282.795 216.742s9.905 3.108 12.023 17.325c-6.354 3.852-15.885 7.969-15.885 7.969s-3.813-12.953-13.131-15.938" fill="#29FC2E"/><path d="M282.795 216.742s9.905 3.108 12.023 17.325c-6.354 3.852-15.885 7.969-15.885 7.969s-3.813-12.953-13.131-15.938" stroke="#000" stroke-width="2" stroke-miterlimit="10" stroke-linecap="round" stroke-linejoin="round"/><path d="M282.639 220.598c2.737 1.629 6.574 4.898 8.316 9.473-.993.688-1.458 1.923-1.12 3.082-1.918 1.286-3.961 2.447-5.799 3.409a2.795 2.795 0 00-3.826-1.264c.101-3.269-3.217-8.041-9.639-10.315" stroke="#258500" stroke-width="2" stroke-miterlimit="10" stroke-linecap="round" stroke-linejoin="round"/><path d="M278.654 222.749c-.841.913-.578 2.519.586 3.589 1.164 1.071 2.79 1.199 3.631.287.841-.913.578-2.52-.586-3.59-1.164-1.07-2.79-1.199-3.631-.286z" stroke="#258500" stroke-width="2" stroke-miterlimit="10" stroke-linecap="round" stroke-linejoin="round"/><path d="M149.608 206.016s10.522-3.695 18.912-13.906c1.345-1.637 10.797 11.013 15.421 12.727 0 0-7.241 14.031-17.465 15.877" fill="#29FC2E"/><path d="M149.608 206.016s10.522-3.695 18.912-13.906c1.345-1.637 10.797 11.013 15.421 12.727 0 0-7.241 14.031-17.465 15.877" stroke="#000" stroke-width="2" stroke-miterlimit="10" stroke-linecap="round" stroke-linejoin="round"/><path d="M165.855 217.284c4.661-.841 8.987-5.292 11.88-9.186a2.791 2.791 0 01-.325-3.712c-1.745-1.63-4.128-3.988-5.874-5.72a2.797 2.797 0 01-4.076.157c-2.691 3.072-8.096 8.253-14.953 9.673" stroke="#258500" stroke-width="2" stroke-miterlimit="10" stroke-linecap="round" stroke-linejoin="round"/><path d="M164.414 213.107c1.593-.894 2.35-2.567 1.691-3.736-.658-1.17-2.482-1.393-4.075-.499-1.592.894-2.35 2.566-1.691 3.736.658 1.169 2.482 1.393 4.075.499z" stroke="#258500" stroke-width="2" stroke-miterlimit="10" stroke-linecap="round" stroke-linejoin="round"/><path d="M110.673 41.484s3.558 13.663 5.313 19.867c-14.854-4.72-28.628-2.023-36.866 1.619-3.606-16.467-9.048-19.73-9.048-19.73s30.338-9.374 40.601-1.756z" fill="#29FC2E"/><path d="M110.673 41.484s3.558 13.663 5.313 19.867c-14.854-4.72-28.628-2.023-36.866 1.619-3.606-16.467-9.048-19.73-9.048-19.73s30.338-9.374 40.601-1.756z" stroke="#000" stroke-width="2" stroke-miterlimit="10" stroke-linecap="round" stroke-linejoin="round"/><path d="M70.072 43.24s30.337-9.374 40.6-1.756l-40.6 1.755z" fill="#29FC2E"/><path d="M70.072 43.24s30.337-9.374 40.6-1.756" stroke="#000" stroke-width="2" stroke-miterlimit="10" stroke-linecap="round" stroke-linejoin="round"/><path d="M81.776 55.694c1.32-.4 2.714.286 3.245 1.556a55.023 55.023 0 0115.149-2.109c2.317 0 4.625.145 6.911.432-.484-1.846 1.046-3.596 2.943-3.351-.713-2.678-1.387-5.24-1.859-7.042a2.69 2.69 0 01-1.727-1.862c-1.703-.59-4.222-1.052-7.935-1.052-6.16 0-13.138 1.265-18.296 2.44.834 1.56-.047 3.476-1.771 3.88 1.15 2.18 2.358 4.659 3.34 7.108z" fill="#29FC2E"/><path d="M81.776 55.694c1.32-.4 2.714.286 3.245 1.556a55.023 55.023 0 0115.149-2.109c2.317 0 4.625.145 6.911.432-.484-1.846 1.046-3.596 2.943-3.351-.713-2.678-1.387-5.24-1.859-7.042a2.69 2.69 0 01-1.727-1.862c-1.703-.59-4.222-1.052-7.935-1.052-6.16 0-13.138 1.265-18.296 2.44.834 1.56-.047 3.476-1.771 3.88 1.15 2.18 2.358 4.659 3.34 7.108z" stroke="#258500" stroke-width="2" stroke-miterlimit="10" stroke-linecap="round" stroke-linejoin="round"/><path d="M91.492 49.012c.113 1.664 1.942 2.896 4.087 2.751 2.145-.145 3.791-1.612 3.678-3.277-.113-1.664-1.942-2.896-4.087-2.751-2.145.145-3.791 1.612-3.678 3.277z" fill="#29FC2E"/><path d="M91.492 49.012c.113 1.664 1.942 2.896 4.087 2.751 2.145-.145 3.791-1.612 3.678-3.277-.113-1.664-1.942-2.896-4.087-2.751-2.145.145-3.791 1.612-3.678 3.277z" stroke="#258500" stroke-width="2" stroke-miterlimit="10" stroke-linecap="round" stroke-linejoin="round"/><path d="M209.19 30.572s-6.191 12.692-8.895 18.545c-8.214-13.231-22.745-19.205-31.374-21.786 3.905-6.426 6.732-16.725 6.732-16.725s27.271-1.356 33.537 19.965z" fill="#29FC2E"/><path d="M209.19 30.572s-6.191 12.692-8.895 18.545c-8.214-13.231-22.745-19.205-31.374-21.786 3.905-6.426 6.732-16.725 6.732-16.725s27.271-1.356 33.537 19.965z" stroke="#000" stroke-width="2" stroke-miterlimit="10" stroke-linecap="round" stroke-linejoin="round"/><path d="M209.19 30.572s-6.191 12.692-8.895 18.545c-8.214-13.231-22.745-19.205-31.374-21.786 3.905-6.426 6.732-16.725 6.732-16.725s27.271-1.356 33.537 19.965z" fill="#29FC2E"/><path d="M209.19 30.572s-6.191 12.692-8.895 18.545c-8.214-13.231-22.745-19.205-31.374-21.786 3.905-6.426 6.732-16.725 6.732-16.725s27.271-1.356 33.537 19.965z" stroke="#000" stroke-width="2" stroke-miterlimit="10" stroke-linecap="round" stroke-linejoin="round"/><path d="M201.443 38.56c1.047-2.176 2.067-4.283 2.88-5.96a5.598 5.598 0 01-.089-5.043c-4.678-8.932-14.508-11.964-21.257-12.981a5.591 5.591 0 01-6.107 3.629 88.623 88.623 0 01-1.745 4.478 2.77 2.77 0 011.518 3.648c6.777 2.71 14.169 6.806 20.281 12.961.861-1.738 3.168-2.125 4.519-.732z" stroke="#258500" stroke-width="2" stroke-miterlimit="10" stroke-linecap="round" stroke-linejoin="round"/><path d="M188.714 22.966c-1.207 1.872-.95 4.185.575 5.167 1.525.981 3.741.259 4.949-1.613 1.207-1.873.95-4.186-.576-5.167-1.525-.981-3.74-.26-4.948 1.613z" fill="#29FC2E"/><path d="M188.714 22.966c-1.207 1.872-.95 4.185.575 5.167 1.525.981 3.741.259 4.949-1.613 1.207-1.873.95-4.186-.576-5.167-1.525-.981-3.74-.26-4.948 1.613z" stroke="#258500" stroke-width="2" stroke-miterlimit="10" stroke-linecap="round" stroke-linejoin="round"/><path d="M72.93 22.275h38.246V1H72.931v21.275z" fill="#29FC2E" stroke="#000" stroke-width="2" stroke-miterlimit="10" stroke-linecap="round" stroke-linejoin="round"/><path d="M72.93 22.275h38.246V1H72.931v21.275z" fill="#29FC2E" stroke="#000" stroke-width="2" stroke-miterlimit="10" stroke-linecap="round" stroke-linejoin="round"/><path d="M107.21 15.379V7.896a2.716 2.716 0 01-2.717-2.714H79.616A2.715 2.715 0 0176.9 7.896v7.483a2.715 2.715 0 012.717 2.713h24.877a2.716 2.716 0 012.717-2.713z" fill="#29FC2E"/><path d="M107.21 15.379V7.896a2.716 2.716 0 01-2.717-2.714H79.616A2.715 2.715 0 0176.9 7.896v7.483a2.715 2.715 0 012.717 2.713h24.877a2.716 2.716 0 012.717-2.713z" stroke="#258500" stroke-width="2" stroke-miterlimit="10" stroke-linecap="round" stroke-linejoin="round"/><path d="M88.47 11.637c0 1.72 1.604 3.115 3.584 3.115s3.584-1.394 3.584-3.115c0-1.72-1.605-3.114-3.584-3.114-1.98 0-3.585 1.394-3.585 3.114z" stroke="#258500" stroke-width="2" stroke-miterlimit="10" stroke-linecap="round" stroke-linejoin="round"/></svg>